<?xml version="1.0" encoding="utf-8"?>
<!-- Generator: Adobe Illustrator 20.0.0, SVG Export Plug-In . SVG Version: 6.00 Build 0)  -->
<svg version="1.1" id="Layer_1" xmlns="http://www.w3.org/2000/svg" xmlns:xlink="http://www.w3.org/1999/xlink" x="0px" y="0px"
	 width="776px" height="585px" viewBox="0 0 776 585" style="enable-background:new 0 0 776 585;" xml:space="preserve">
<style type="text/css">
	.st0{fill:none;stroke:#000000;stroke-width:4;stroke-linecap:round;stroke-miterlimit:10;}
	.st1{fill:none;stroke:#000000;stroke-width:4;stroke-linecap:square;stroke-linejoin:round;stroke-miterlimit:10;}
	.st2{fill:none;stroke:#000000;stroke-width:3;stroke-linecap:round;stroke-miterlimit:10;}
	.st3{fill:none;stroke:#000000;stroke-width:4;stroke-linecap:square;stroke-miterlimit:10;}
	.st4{fill:#DAE2F2;fill-opacity:0;}
	.st5{font-family:'Arial-BoldMT';}
	.st6{font-size:24.92px;}
	.st7{font-size:32.04px;}
	.st8{font-size:49.84px;}
	.st9{stroke:#000000;stroke-width:2.98;stroke-linecap:round;stroke-linejoin:round;stroke-miterlimit:10;}
	.st10{stroke:#000000;stroke-width:4;stroke-linecap:square;stroke-miterlimit:10;}
	.st11{stroke:#000000;stroke-width:2;stroke-linecap:square;stroke-linejoin:round;stroke-miterlimit:10;}
	.st12{fill:none;stroke:#000000;stroke-width:4;stroke-linecap:round;stroke-linejoin:round;stroke-miterlimit:10;}
	.st13{stroke:#000000;stroke-width:2;stroke-linecap:round;stroke-linejoin:round;stroke-miterlimit:10;}
	.st14{font-size:35.6px;}
	.st15{font-size:21.36px;}
	.st16{fill:none;stroke:#000000;stroke-width:4;}
	.st17{fill:none;stroke:#000000;stroke-width:2.16;}
	.st18{fill:none;stroke:#000000;stroke-width:4;stroke-miterlimit:10;}
	.st19{stroke:#000000;stroke-width:1.8;stroke-linecap:square;stroke-linejoin:round;stroke-miterlimit:10;}
</style>
<g transform=" scale(0.89) translate(-501.3325,50.670000000000016)">
	<rect x="858" y="216.1" pointer-events="none" width="4" height="4"/>
	<rect x="858" y="316.1" pointer-events="none" width="4" height="4"/>
	<rect x="858" y="216.1" pointer-events="none" width="4" height="4"/>
	<rect x="858" y="316.1" pointer-events="none" width="4" height="4"/>
	<path pointer-events="none" class="st0" d="M824,261.2c72,0,72,0,72,0"/>
	<path pointer-events="none" class="st0" d="M842,276.1c36,0,36,0,36,0"/>
	<path pointer-events="none" class="st1" d="M860,220.1v40"/>
	<path pointer-events="none" class="st1" d="M860,276.1v40"/>
	<path pointer-events="none" class="st2" d="M824,240.1c20,0,20,0,20,0"/>
	<path pointer-events="none" class="st2" d="M834,230.1c0,20,0,20,0,20"/>
	<path pointer-events="none" class="st0" d="M824,261.2c72,0,72,0,72,0"/>
	<path pointer-events="none" class="st0" d="M842,276.1c36,0,36,0,36,0"/>
	<path pointer-events="none" class="st3" d="M860,220.1v40"/>
	<path pointer-events="none" class="st3" d="M860,276.1v40"/>
	<path pointer-events="none" class="st2" d="M824,240.1c20,0,20,0,20,0"/>
	<path pointer-events="none" class="st2" d="M834,230.1c0,20,0,20,0,20"/>
	<rect x="940" y="238.1" pointer-events="none" class="st4" width="26" height="26"/>
	<g>
		<text transform="matrix(1.1236 0 0 1.1236 935.8765 261.0905)" class="st5 st6">5V</text>
	</g>
	<rect x="600" y="278.1" pointer-events="none" class="st4" width="118" height="28"/>
	<g>
		<text transform="matrix(1.1236 0 0 1.1236 562.0215 306.0902)" class="st5 st7">(digital pin)</text>
	</g>
	<rect x="620" y="198.1" pointer-events="none" class="st4" width="76" height="26"/>
	<g>
		<text transform="matrix(1.1236 0 0 1.1236 550.6895 235.0898)" class="st5 st8">Arduino</text>
	</g>
	<rect x="1178" y="396.1" pointer-events="none" width="4" height="4"/>
	<rect x="1178" y="276.1" pointer-events="none" width="4" height="4"/>
	<path pointer-events="none" class="st0" d="M1164,353.6c44,0,32,0,32,0"/>
	<path pointer-events="none" class="st9" d="M1179.7,353c0,0,0,0-15.7-29.4c31.4,0,31.4,0,31.4,0L1179.7,353z"/>
	<path pointer-events="none" class="st10" d="M1180,396.1v-116"/>
	<path pointer-events="none" class="st11" d="M1216.5,360.5l8.5-8.5l5.7,14.1L1216.5,360.5z"/>
	<path pointer-events="none" class="st12" d="M1208,343.6l17,17"/>
	<path pointer-events="none" class="st13" d="M1213.1,382.7l8.5-8.5l5.7,14.1L1213.1,382.7z"/>
	<path pointer-events="none" class="st12" d="M1204.7,365.7l17,17"/>
	<rect x="1280" y="358.1" pointer-events="none" class="st4" width="46" height="28"/>
	<g>
		<text transform="matrix(1.1236 0 0 1.1236 1262.9996 388.0897)" class="st5 st14">LED</text>
	</g>
	<rect x="1080" y="378.1" pointer-events="none" class="st4" width="86" height="28"/>
	<g>
		<text transform="matrix(1.1236 0 0 1.1236 1076.9919 400.0893)" class="st5 st15">cathode</text>
	</g>
	<rect x="1080" y="278.1" pointer-events="none" class="st4" width="66" height="28"/>
	<g>
		<text transform="matrix(1.1236 0 0 1.1236 1077.6624 300.0893)" class="st5 st15">anode</text>
	</g>
	<rect x="1078" y="76.1" pointer-events="none" width="4" height="4"/>
	<rect x="958" y="76.1" pointer-events="none" width="4" height="4"/>
	<ellipse pointer-events="none" class="st16" cx="1055" cy="78.1" rx="4" ry="4"/>
	<rect x="981.3" y="62.3" pointer-events="none" class="st17" width="77.8" height="1.9"/>
	<ellipse pointer-events="none" class="st16" cx="985" cy="78.1" rx="4" ry="4"/>
	<path pointer-events="none" class="st3" d="M1061,78.1h17"/>
	<path pointer-events="none" class="st3" d="M962,78.1h17"/>
	<path pointer-events="none" class="st3" d="M1020.2,29.5c0,31.8,0,31.8,0,31.8"/>
	<rect x="948" y="98.1" pointer-events="none" class="st4" width="138" height="26"/>
	<g>
		<text transform="matrix(1.1236 0 0 1.1236 934.9866 119.0895)" class="st5 st15">normally open</text>
	</g>
	<rect x="980" y="-21.9" pointer-events="none" class="st4" width="64" height="26"/>
	<g>
		<text transform="matrix(1.1236 0 0 1.1236 947.5469 7.0898)" class="st5 st14">Switch</text>
	</g>
	<path pointer-events="none" class="st18" d="M860,218.1v-140h100"/>
	<rect x="1078" y="456.1" pointer-events="none" width="4" height="4"/>
	<rect x="958" y="456.1" pointer-events="none" width="4" height="4"/>
	<rect x="1018" y="516.1" pointer-events="none" width="4" height="4"/>
	<path pointer-events="none" class="st12" d="M1056,458.1l-6,14l-6-14"/>
	<path pointer-events="none" class="st12" d="M1044,458.1l-6-14l-6,14"/>
	<path pointer-events="none" class="st12" d="M1032,458.1l-6,14l-6-14"/>
	<path pointer-events="none" class="st12" d="M1020,458.1l-6-14l-6,14"/>
	<path pointer-events="none" class="st12" d="M1008,458.1l-6,14l-6-14"/>
	<path pointer-events="none" class="st12" d="M996,458.1l-6-14l-6,14"/>
	<path pointer-events="none" class="st10" d="M1078,458.1h-20"/>
	<path pointer-events="none" class="st10" d="M982,458.1h-20"/>
	<path pointer-events="none" class="st10" d="M1020,488.1v28"/>
	<path pointer-events="none" class="st19" d="M1014.6,491.6c0.1-0.3,1.3-4.7,2.7-9.6c1.4-4.9,2.6-9,2.6-9c0,0,1.2,4,2.5,9
		c1.4,4.9,2.5,9.3,2.6,9.6l0.2,0.6l-5.4,0l-5.4,0L1014.6,491.6z"/>
	<rect x="940" y="558.1" pointer-events="none" class="st4" width="150" height="28"/>
	<g>
		<text transform="matrix(1.1236 0 0 1.1236 880.5372 588.0897)" class="st5 st14">Potentiometer</text>
	</g>
	<path pointer-events="none" class="st18" d="M1080,458.1h100v-60"/>
	<path pointer-events="none" class="st18" d="M960,458.1H860v-140"/>
	<rect x="1178" y="136.1" pointer-events="none" width="4" height="4"/>
	<rect x="1178" y="256.1" pointer-events="none" width="4" height="4"/>
	<path pointer-events="none" class="st12" d="M1180,162.1l14,6l-14,6"/>
	<path pointer-events="none" class="st12" d="M1180,174.1l-14,6l14,6"/>
	<path pointer-events="none" class="st12" d="M1180,186.1l14,6l-14,6"/>
	<path pointer-events="none" class="st12" d="M1180,198.1l-14,6l14,6"/>
	<path pointer-events="none" class="st12" d="M1180,210.1l14,6l-14,6"/>
	<path pointer-events="none" class="st12" d="M1180,222.1l-14,6l14,6"/>
	<path pointer-events="none" class="st10" d="M1180,140.1v20"/>
	<path pointer-events="none" class="st10" d="M1180,236.1v20"/>
	<rect x="1132" y="138.1" pointer-events="none" class="st4" width="30" height="28"/>
	<g>
		<text transform="matrix(1.1236 0 0 1.1236 1131.6597 160.0898)" class="st5 st15">R1</text>
	</g>
	<path pointer-events="none" class="st18" d="M1180,138.1v-60h-100"/>
	<path pointer-events="none" class="st18" d="M1180,278.1v-20"/>
</g>
</svg>
