<?xml version="1.0" encoding="utf-8"?>
<!-- Generator: Adobe Illustrator 20.0.0, SVG Export Plug-In . SVG Version: 6.00 Build 0)  -->
<svg version="1.1" id="Layer_1" xmlns="http://www.w3.org/2000/svg" xmlns:xlink="http://www.w3.org/1999/xlink" x="0px" y="0px"
	 viewBox="0 0 776 607.5" style="enable-background:new 0 0 776 607.5;" xml:space="preserve">
<style type="text/css">
	.st0{fill:none;stroke:#000000;stroke-width:4;stroke-linecap:round;stroke-miterlimit:10;}
	.st1{fill:none;stroke:#000000;stroke-width:4;stroke-linecap:square;stroke-linejoin:round;stroke-miterlimit:10;}
	.st2{fill:none;stroke:#000000;stroke-width:3;stroke-linecap:round;stroke-miterlimit:10;}
	.st3{fill:none;stroke:#000000;stroke-width:4;stroke-linecap:square;stroke-miterlimit:10;}
	.st4{fill:#DAE2F2;fill-opacity:0;}
	.st5{font-family:'Arial-BoldMT';}
	.st6{font-size:24.92px;}
	.st7{font-size:32.04px;}
	.st8{font-size:49.84px;}
	.st9{stroke:#000000;stroke-width:2.98;stroke-linecap:round;stroke-linejoin:round;stroke-miterlimit:10;}
	.st10{stroke:#000000;stroke-width:4;stroke-linecap:square;stroke-miterlimit:10;}
	.st11{stroke:#000000;stroke-width:2;stroke-linecap:square;stroke-linejoin:round;stroke-miterlimit:10;}
	.st12{fill:none;stroke:#000000;stroke-width:4;stroke-linecap:round;stroke-linejoin:round;stroke-miterlimit:10;}
	.st13{stroke:#000000;stroke-width:2;stroke-linecap:round;stroke-linejoin:round;stroke-miterlimit:10;}
	.st14{font-size:35.6px;}
	.st15{font-size:21.36px;}
	.st16{fill:none;stroke:#000000;stroke-width:4;}
	.st17{fill:none;stroke:#000000;stroke-width:2.16;}
	.st18{fill:none;stroke:#000000;stroke-width:4;stroke-miterlimit:10;}
	.st19{stroke:#000000;stroke-width:1.8;stroke-linecap:square;stroke-linejoin:round;stroke-miterlimit:10;}
</style>
<g transform=" scale(0.89) translate(-501.3325,51.11500000000001)">
	<rect x="858" y="220.5" pointer-events="none" width="4" height="4"/>
	<rect x="858" y="320.5" pointer-events="none" width="4" height="4"/>
	<rect x="858" y="220.5" pointer-events="none" width="4" height="4"/>
	<rect x="858" y="320.5" pointer-events="none" width="4" height="4"/>
	<path pointer-events="none" class="st0" d="M824,265.5c72,0,72,0,72,0"/>
	<path pointer-events="none" class="st0" d="M842,280.5c36,0,36,0,36,0"/>
	<path pointer-events="none" class="st1" d="M860,224.5v40"/>
	<path pointer-events="none" class="st1" d="M860,280.5v40"/>
	<path pointer-events="none" class="st2" d="M824,244.5c20,0,20,0,20,0"/>
	<path pointer-events="none" class="st2" d="M834,234.5c0,20,0,20,0,20"/>
	<path pointer-events="none" class="st0" d="M824,265.5c72,0,72,0,72,0"/>
	<path pointer-events="none" class="st0" d="M842,280.5c36,0,36,0,36,0"/>
	<path pointer-events="none" class="st3" d="M860,224.5v40"/>
	<path pointer-events="none" class="st3" d="M860,280.5v40"/>
	<path pointer-events="none" class="st2" d="M824,244.5c20,0,20,0,20,0"/>
	<path pointer-events="none" class="st2" d="M834,234.5c0,20,0,20,0,20"/>
	<rect x="940" y="242.5" pointer-events="none" class="st4" width="26" height="26"/>
	<g>
		<text transform="matrix(1.1236 0 0 1.1236 935.8765 265.465)" class="st5 st6">5V</text>
	</g>
	<rect x="600" y="282.5" pointer-events="none" class="st4" width="118" height="28"/>
	<g>
		<text transform="matrix(1.1236 0 0 1.1236 562.0215 310.4648)" class="st5 st7">(digital pin)</text>
	</g>
	<rect x="620" y="202.5" pointer-events="none" class="st4" width="76" height="26"/>
	<g>
		<text transform="matrix(1.1236 0 0 1.1236 550.6895 239.4654)" class="st5 st8">Arduino</text>
	</g>
	<rect x="1178" y="340.5" pointer-events="none" width="4" height="4"/>
	<rect x="1178" y="220.5" pointer-events="none" width="4" height="4"/>
	<path pointer-events="none" class="st0" d="M1164,298c44,0,32,0,32,0"/>
	<path pointer-events="none" class="st9" d="M1179.7,297.4c0,0,0,0-15.7-29.4c31.4,0,31.4,0,31.4,0L1179.7,297.4z"/>
	<path pointer-events="none" class="st10" d="M1180,340.5v-116"/>
	<path pointer-events="none" class="st11" d="M1216.5,304.9l8.5-8.5l5.7,14.1L1216.5,304.9z"/>
	<path pointer-events="none" class="st12" d="M1208,288l17,17"/>
	<path pointer-events="none" class="st13" d="M1213.1,327l8.5-8.5l5.7,14.1L1213.1,327z"/>
	<path pointer-events="none" class="st12" d="M1204.7,310l17,17"/>
	<rect x="1280" y="302.5" pointer-events="none" class="st4" width="46" height="28"/>
	<g>
		<text transform="matrix(1.1236 0 0 1.1236 1262.9996 332.4648)" class="st5 st14">LED</text>
	</g>
	<rect x="1080" y="322.5" pointer-events="none" class="st4" width="86" height="28"/>
	<g>
		<text transform="matrix(1.1236 0 0 1.1236 1076.9919 344.4645)" class="st5 st15">cathode</text>
	</g>
	<rect x="1080" y="222.5" pointer-events="none" class="st4" width="66" height="28"/>
	<g>
		<text transform="matrix(1.1236 0 0 1.1236 1077.6624 244.4645)" class="st5 st15">anode</text>
	</g>
	<rect x="1078" y="80.5" pointer-events="none" width="4" height="4"/>
	<rect x="958" y="80.5" pointer-events="none" width="4" height="4"/>
	<ellipse pointer-events="none" class="st16" cx="1055" cy="82.5" rx="4" ry="4"/>
	<rect x="981.3" y="66.7" pointer-events="none" class="st17" width="77.8" height="1.9"/>
	<ellipse pointer-events="none" class="st16" cx="985" cy="82.5" rx="4" ry="4"/>
	<path pointer-events="none" class="st3" d="M1061,82.5h17"/>
	<path pointer-events="none" class="st3" d="M962,82.5h17"/>
	<path pointer-events="none" class="st3" d="M1020.2,33.9c0,31.8,0,31.8,0,31.8"/>
	<rect x="948" y="102.5" pointer-events="none" class="st4" width="138" height="26"/>
	<g>
		<text transform="matrix(1.1236 0 0 1.1236 934.9866 123.4651)" class="st5 st15">normally open</text>
	</g>
	<rect x="980" y="-17.5" pointer-events="none" class="st4" width="64" height="26"/>
	<g>
		<text transform="matrix(1.1236 0 0 1.1236 947.5469 11.4655)" class="st5 st14">Switch</text>
	</g>
	<path pointer-events="none" class="st18" d="M860,222.5v-140h100"/>
	<path pointer-events="none" class="st18" d="M1180,222.5v-140h-100"/>
	<rect x="1078" y="460.5" pointer-events="none" width="4" height="4"/>
	<rect x="958" y="460.5" pointer-events="none" width="4" height="4"/>
	<rect x="1018" y="520.5" pointer-events="none" width="4" height="4"/>
	<path pointer-events="none" class="st12" d="M1056,462.5l-6,14l-6-14"/>
	<path pointer-events="none" class="st12" d="M1044,462.5l-6-14l-6,14"/>
	<path pointer-events="none" class="st12" d="M1032,462.5l-6,14l-6-14"/>
	<path pointer-events="none" class="st12" d="M1020,462.5l-6-14l-6,14"/>
	<path pointer-events="none" class="st12" d="M1008,462.5l-6,14l-6-14"/>
	<path pointer-events="none" class="st12" d="M996,462.5l-6-14l-6,14"/>
	<path pointer-events="none" class="st10" d="M1078,462.5h-20"/>
	<path pointer-events="none" class="st10" d="M982,462.5h-20"/>
	<path pointer-events="none" class="st10" d="M1020,492.5v28"/>
	<path pointer-events="none" class="st19" d="M1014.6,496c0.1-0.3,1.3-4.7,2.7-9.6c1.4-4.9,2.6-9,2.6-9c0,0,1.2,4,2.5,9
		c1.4,4.9,2.5,9.3,2.6,9.6l0.2,0.6l-5.4,0l-5.4,0L1014.6,496z"/>
	<rect x="940" y="562.5" pointer-events="none" class="st4" width="150" height="28"/>
	<g>
		<text transform="matrix(1.1236 0 0 1.1236 880.5372 592.4653)" class="st5 st14">Potentiometer</text>
	</g>
	<path pointer-events="none" class="st18" d="M1080,462.5h100v-120"/>
	<path pointer-events="none" class="st18" d="M960,462.5H860v-140"/>
</g>
</svg>
